<?xml version="1.0" encoding="UTF-8" standalone="no"?>
<svg
   xmlns:dc="http://purl.org/dc/elements/1.1/"
   xmlns:cc="http://creativecommons.org/ns#"
   xmlns:rdf="http://www.w3.org/1999/02/22-rdf-syntax-ns#"
   xmlns:svg="http://www.w3.org/2000/svg"
   xmlns="http://www.w3.org/2000/svg"
   xmlns:xlink="http://www.w3.org/1999/xlink"
   xmlns:sodipodi="http://sodipodi.sourceforge.net/DTD/sodipodi-0.dtd"
   xmlns:inkscape="http://www.inkscape.org/namespaces/inkscape"
   width="850.48"
   height="455.24"
   version="1.1"
   viewBox="0 0 225.02 120.45"
   id="svg44"
   sodipodi:docname="bibledit_logo.svg"
   inkscape:version="1.0.2 (394de47547, 2021-03-26)">
  <defs
     id="defs48">
    <linearGradient
       inkscape:collect="always"
       id="linearGradient877">
      <stop
         style="stop-color:#598fb2;stop-opacity:1"
         offset="0"
         id="stop873" />
      <stop
         style="stop-color:#196394;stop-opacity:1"
         offset="1"
         id="stop875" />
    </linearGradient>
    <linearGradient
       inkscape:collect="always"
       xlink:href="#linearGradient877"
       id="linearGradient879"
       x1="328.57169"
       y1="51.667263"
       x2="33.048988"
       y2="197.27007"
       gradientUnits="userSpaceOnUse" />
  </defs>
  <sodipodi:namedview
     pagecolor="#ffffff"
     bordercolor="#666666"
     borderopacity="1"
     objecttolerance="10"
     gridtolerance="10"
     guidetolerance="10"
     inkscape:pageopacity="0"
     inkscape:pageshadow="2"
     inkscape:window-width="1366"
     inkscape:window-height="704"
     id="namedview46"
     showgrid="false"
     inkscape:zoom="0.74789729"
     inkscape:cx="511.85303"
     inkscape:cy="135.75486"
     inkscape:window-x="0"
     inkscape:window-y="27"
     inkscape:window-maximized="1"
     inkscape:current-layer="svg44" />
  <metadata
     id="metadata2">
    <rdf:RDF>
      <cc:Work
         rdf:about="">
        <dc:format>image/svg+xml</dc:format>
        <dc:type
           rdf:resource="http://purl.org/dc/dcmitype/StillImage" />
        <dc:title></dc:title>
      </cc:Work>
    </rdf:RDF>
  </metadata>
  <g
     transform="translate(-30.363,-82.651)"
     id="g42"
     style="fill:url(#linearGradient879);fill-opacity:1">
    <g
       fill="#4c0000"
       id="g12"
       style="fill:url(#linearGradient879);fill-opacity:1.0">
      <path
         d="m -279.19,-42.193 c 0,0 42.482,-15.121 60.886,-15.121 18.403,0 49.535,15.121 49.535,15.121 v 125.07 c 0,0 -31.131,-15.104 -49.535,-15.121 -26.708,-0.0258 -85.798,14.967 -85.798,14.967 z"
         display="none"
         stroke-width="0.26458"
         id="path4"
         style="fill:url(#linearGradient879);fill-opacity:1.0" />
      <path
         d="m -230.23,195.28 c -0.51497,0.004 -1.0293,0.0186 -1.5405,0.0434 -5.8887,0.40816 -11.762,1.5953 -17.544,2.9202 -12.341,2.893 -24.495,6.5883 -36.569,10.625 -9.9606,37.411 -19.921,74.822 -29.882,112.23 14.999,-3.5746 30.06,-6.8482 45.197,-9.5059 9.9592,-1.6984 19.963,-3.289 29.992,-3.7595 5.8167,-0.39291 11.551,0.48931 17.058,1.9038 10.856,2.7965 21.207,6.9942 38.552,11.74 17.345,-4.7456 27.697,-8.9433 38.553,-11.74 5.5075,-1.4144 11.241,-2.2967 17.058,-1.9038 10.029,0.47051 20.033,2.0611 29.992,3.7595 15.137,2.6577 30.199,5.9312 45.197,9.5059 -9.9606,-37.411 -19.921,-74.822 -29.882,-112.23 -12.074,-4.0364 -24.227,-7.7316 -36.568,-10.625 -5.7816,-1.3249 -11.655,-2.5121 -17.544,-2.9202 -0.5112,-0.0248 -1.0255,-0.0393 -1.5405,-0.0434 -1.5449,-0.0122 -3.0958,0.0679 -4.5858,0.23202 -5.8936,0.68688 -11.593,2.2408 -17.171,4.0644 -8.0659,2.6947 -15.906,5.9469 -23.509,9.6278 -7.6029,-3.6809 -15.443,-6.9331 -23.509,-9.6278 -5.5779,-1.8236 -11.277,-3.3775 -17.171,-4.0644 -1.49,-0.16412 -3.0408,-0.24424 -4.5858,-0.23203 z m 2.3337,6.0968 c 1.4653,-0.0109 2.9359,0.0606 4.3491,0.20671 5.5898,0.61148 10.995,1.9944 16.285,3.6179 7.65,2.399 15.086,5.2947 22.297,8.5716 7.2109,-3.2769 14.647,-6.1726 22.297,-8.5716 5.2903,-1.6234 10.696,-3.0064 16.286,-3.6179 1.4132,-0.14612 2.8838,-0.21756 4.3491,-0.20671 0.48843,0.004 0.97657,0.0166 1.4614,0.0388 5.5851,0.36336 11.155,1.4204 16.639,2.5998 11.705,2.5755 23.232,5.865 34.683,9.4583 9.447,33.305 18.894,66.61 28.341,99.915 -14.225,-3.1823 -28.51,-6.096 -42.867,-8.462 -9.4458,-1.512 -18.934,-2.9282 -28.446,-3.3471 -5.5168,-0.34979 -10.955,0.43526 -16.179,1.6945 -10.296,2.4896 -20.114,7.8846 -36.565,12.109 -16.451,-4.2248 -26.269,-9.6198 -36.565,-12.109 -5.2236,-1.2592 -10.662,-2.0443 -16.179,-1.6945 -9.5117,0.41887 -19,1.8351 -28.445,3.3471 -14.357,2.366 -28.642,5.2797 -42.867,8.462 9.447,-33.305 18.894,-66.61 28.341,-99.915 11.451,-3.5934 22.978,-6.8828 34.683,-9.4583 5.4836,-1.1795 11.054,-2.2365 16.639,-2.5998 0.48485,-0.0221 0.97297,-0.035 1.4614,-0.0388 z"
         display="none"
         stroke-width="0.24297"
         id="path6"
         style="fill:url(#linearGradient879);fill-opacity:1.0" />
      <path
         d="m -185.94,97.704 c -0.34158,0.003 -0.68272,0.0123 -1.0218,0.0288 -3.906,0.27073 -7.8017,1.0582 -11.637,1.937 -8.186,1.9189 -16.248,4.37 -24.256,7.0473 -6.6068,24.815 -13.214,49.629 -19.821,74.444 9.9486,-2.371 19.939,-4.5424 29.979,-6.3052 6.6059,-1.1265 13.241,-2.1815 19.894,-2.4936 3.8582,-0.26062 7.6616,0.32455 11.315,1.2628 7.2005,1.8549 14.067,4.6392 25.572,7.787 11.505,-3.1478 18.371,-5.9321 25.572,-7.787 3.6531,-0.93821 7.4562,-1.5234 11.314,-1.2628 6.652,0.31208 13.288,1.3671 19.894,2.4936 10.04,1.7628 20.031,3.9342 29.979,6.3052 -6.6068,-24.815 -13.214,-49.629 -19.821,-74.444 -8.0083,-2.6773 -16.07,-5.1284 -24.256,-7.0473 -3.835,-0.87881 -7.7307,-1.6662 -11.637,-1.937 -0.33909,-0.0165 -0.68021,-0.0261 -1.0218,-0.0288 -1.0248,-0.008 -2.0534,0.0451 -3.0417,0.1539 -3.9092,0.4556 -7.6893,1.4863 -11.389,2.6959 -5.3501,1.7874 -10.551,3.9446 -15.594,6.3861 -5.043,-2.4415 -10.243,-4.5987 -15.593,-6.3861 -3.6998,-1.2095 -7.4799,-2.2403 -11.389,-2.6959 -0.98831,-0.10886 -2.017,-0.162 -3.0417,-0.1539 z m 1.5479,4.044 c 0.97191,-0.007 1.9474,0.0402 2.8847,0.13711 3.7077,0.40559 7.2929,1.3229 10.802,2.3997 5.0742,1.5912 10.006,3.5119 14.789,5.6855 4.783,-2.1736 9.7152,-4.0943 14.789,-5.6855 3.5091,-1.0768 7.0946,-1.9941 10.802,-2.3997 0.93735,-0.0969 1.9128,-0.14431 2.8847,-0.13711 0.32398,0.003 0.64777,0.011 0.96936,0.0257 3.7046,0.24102 7.3992,0.94211 11.036,1.7245 7.764,1.7083 15.41,3.8902 23.005,6.2737 6.2662,22.091 12.533,44.182 18.799,66.273 -9.4357,-2.1108 -18.911,-4.0435 -28.434,-5.6128 -6.2653,-1.0029 -12.559,-1.9423 -18.868,-2.2201 -3.6593,-0.23202 -7.2666,0.2887 -10.731,1.1239 -6.8292,1.6513 -13.341,5.2298 -24.253,8.0321 -10.912,-2.8023 -17.424,-6.3808 -24.253,-8.0321 -3.4648,-0.83522 -7.0721,-1.3559 -10.731,-1.1239 -6.3091,0.27783 -12.602,1.2172 -18.868,2.2201 -9.5228,1.5693 -18.998,3.502 -28.434,5.6128 6.2662,-22.091 12.532,-44.182 18.798,-66.273 7.5954,-2.3835 15.241,-4.5653 23.005,-6.2737 3.6372,-0.78236 7.3322,-1.4834 11.037,-1.7245 0.3216,-0.0146 0.64538,-0.0232 0.96935,-0.0257 z"
         display="none"
         stroke-width="0.16116"
         id="path8"
         style="fill:url(#linearGradient879);fill-opacity:1.0" />
      <path
         d="m -191.13,88.075 c -0.40061,0.0038 -0.80071,0.01575 -1.1984,0.03688 -4.5809,0.3467 -9.1498,1.3551 -13.647,2.4806 -9.6005,2.4575 -19.055,5.5963 -28.447,9.025 -7.7485,31.778 -15.497,63.557 -23.246,95.335 11.668,-3.0364 23.384,-5.8171 35.159,-8.0746 7.7474,-1.4427 15.53,-2.7937 23.331,-3.1934 4.5249,-0.33374 8.9856,0.41565 13.27,1.6171 8.4447,2.3755 16.497,5.9412 29.99,9.9723 13.493,-4.0311 21.546,-7.5968 29.991,-9.9723 4.2844,-1.2015 8.7446,-1.9509 13.27,-1.6171 7.8015,0.39968 15.584,1.7508 23.331,3.1934 11.775,2.2575 23.492,5.0382 35.159,8.0746 -7.7485,-31.778 -15.497,-63.557 -23.246,-95.335 -9.3921,-3.4287 -18.846,-6.5675 -28.447,-9.025 -4.4976,-1.1254 -9.0666,-2.1338 -13.647,-2.4806 -0.39768,-0.02112 -0.79775,-0.03342 -1.1984,-0.03688 -1.2018,-0.01025 -2.4083,0.05776 -3.5673,0.19709 -4.5847,0.58346 -9.018,1.9034 -13.357,3.4524 -6.2746,2.289 -12.374,5.0516 -18.288,8.1782 -5.9144,-3.1267 -12.013,-5.8892 -18.288,-8.1782 -4.3391,-1.549 -8.7724,-2.8689 -13.357,-3.4524 -1.1591,-0.13941 -2.3655,-0.20746 -3.5673,-0.19709 z m 1.8154,5.1788 c 1.1398,-0.0089 2.2839,0.05148 3.3832,0.17559 4.3484,0.51941 8.5531,1.6942 12.669,3.0732 5.951,2.0378 11.736,4.4975 17.345,7.281 5.6095,-2.7835 11.394,-5.2432 17.345,-7.281 4.1154,-1.379 8.3206,-2.5537 12.669,-3.0732 1.0993,-0.12409 2.2434,-0.18481 3.3832,-0.17559 0.37996,0.0038 0.7597,0.01408 1.1369,0.03291 4.3447,0.30866 8.6778,1.2065 12.944,2.2084 9.1056,2.1878 18.073,4.9819 26.98,8.0342 7.349,28.29 14.698,56.581 22.047,84.871 -11.066,-2.7032 -22.179,-5.1782 -33.347,-7.1879 -7.348,-1.2844 -14.729,-2.4873 -22.128,-2.8431 -4.2916,-0.29714 -8.5222,0.36973 -12.586,1.4393 -8.0093,2.1147 -15.647,6.6974 -28.444,10.286 -12.797,-3.5887 -20.435,-8.1714 -28.444,-10.286 -4.0635,-1.0696 -8.2941,-1.7365 -12.586,-1.4393 -7.3993,0.3558 -14.78,1.5588 -22.128,2.8431 -11.168,2.0097 -22.281,4.4848 -33.347,7.1879 7.349,-28.29 14.698,-56.581 22.047,-84.871 8.9079,-3.0523 17.875,-5.8465 26.98,-8.0342 4.2658,-1.0019 8.5992,-1.8998 12.944,-2.2084 0.37717,-0.01869 0.7569,-0.02971 1.1368,-0.03291 z"
         display="none"
         stroke-width="0.1975"
         id="path10"
         style="fill:url(#linearGradient879);fill-opacity:1.0" />
    </g>
    <rect
       transform="rotate(-45.002)"
       x="-437.70001"
       y="192.13"
       width="12.638"
       height="137.58"
       display="none"
       fill="#d40000"
       stroke-width="0.26458"
       id="rect14"
       style="fill:url(#linearGradient879);fill-opacity:1.0" />
    <rect
       transform="matrix(-0.70708,-0.70713,-0.70713,0.70708,0,0)"
       x="-170.25"
       y="459.59"
       width="12.638"
       height="137.58"
       display="none"
       fill="#d40000"
       stroke-width="0.26458"
       id="rect16"
       style="fill:url(#linearGradient879);fill-opacity:1.0" />
    <ellipse
       transform="rotate(55.353)"
       cx="-68.709999"
       cy="347.28"
       rx="61.244999"
       ry="169.77"
       display="none"
       fill="#ff9955"
       stroke-width="0.36052"
       id="ellipse18"
       style="fill:url(#linearGradient879);fill-opacity:1.0" />
    <path
       d="m -294.29,175.1 c -74.12,46.592 -147.96,55.566 -160.07,32.211 -12.107,-23.355 38.165,-80.059 112.28,-126.65 74.12,-46.592 147.34,-60.978 159.44,-37.622 12.107,23.355 -37.538,85.47 -111.66,132.06 z"
       display="none"
       fill="#a02c2c"
       stroke-width="0.30669"
       id="path20"
       style="fill:url(#linearGradient879);fill-opacity:1.0" />
    <g
       id="g28"
       style="fill:url(#linearGradient879);fill-opacity:1.0">
      <path
         d="m -121.97,187.2 c -35.586,0.0934 -90.389,22.621 -142.3,58.493 -37.042,25.598 -68.898,55.456 -88.561,83.006 -19.663,27.55 -25.522,50.534 -16.287,63.897 9.2345,13.363 32.806,16.01 65.528,7.3578 32.722,-8.6517 71.916,-27.893 108.96,-53.491 37.042,-25.598 68.898,-55.456 88.561,-83.006 19.663,-27.55 25.522,-50.534 16.287,-63.897 -5.6381,-8.1588 -16.684,-12.4 -32.188,-12.359 z m -6.6263,19.329 c 13.882,0.0962 23.633,3.7091 27.416,11.008 12.107,23.355 -25.341,84.923 -103.03,125.28 -92.23,47.912 -138.29,45.385 -150.39,22.03 -12.107,-23.355 26.41,-73.36 102.61,-116.47 55.842,-31.593 92.861,-42.06 123.4,-41.849 z"
         display="none"
         fill="#4b4a59"
         stroke-width="0.36052"
         id="path22"
         style="fill:url(#linearGradient879);fill-opacity:1.0" />
      <path
         d="m 118.75,-97.187 c 1.0248,-0.008 2.0534,0.0452 3.0417,0.154 3.9092,0.4556 7.6897,1.4864 11.389,2.696 5.3501,1.7874 10.55,3.9446 15.593,6.3862 v 3.0303 c -4.783,-2.1736 -9.7151,-4.0942 -14.789,-5.6854 -3.5091,-1.0768 -7.0948,-1.9943 -10.802,-2.3999 -0.93735,-0.0969 -1.9127,-0.14414 -2.8846,-0.13694 -0.32398,0.003 -0.64786,0.0111 -0.96944,0.0258 -3.7046,0.24102 -7.3993,0.94208 -11.037,1.7244 -6.3585,1.3991 -12.637,3.1184 -18.874,5.0033 0,0 0.27035,-2.7313 1.2774,-3.7383 1.0071,-1.007 4.7651,-2.3037 4.7651,-2.3037 3.5244,-1.0125 7.0656,-1.9541 10.631,-2.79 3.835,-0.87881 7.7306,-1.6661 11.636,-1.9368 0.33909,-0.0165 0.68006,-0.0264 1.0216,-0.0289 z m -34.596,16.062 c -5.8886,20.76 -11.777,41.52 -17.666,62.279 9.4357,-2.1108 18.911,-4.0432 28.433,-5.6126 6.2654,-1.0029 12.559,-1.9422 18.868,-2.22 3.6593,-0.23201 7.2663,0.28874 10.731,1.124 6.8292,1.6513 13.342,5.2298 24.253,8.0321 v 4.0437 c -11.505,-3.1478 -18.372,-5.9322 -25.572,-7.7871 -3.6531,-0.93821 -7.4558,-1.5231 -11.314,-1.2625 -6.652,0.31209 -13.288,1.3669 -19.894,2.4934 -10.04,1.7628 -20.03,3.9345 -29.979,6.3056 5.474,-20.56 10.948,-41.12 16.422,-61.679 0,0 0.86627,-2.8021 1.819,-3.7548 0.95274,-0.95274 3.8974,-1.9616 3.8974,-1.9616 z m -16.882,16.881 c -5.001,19.252 -10.002,38.503 -15.003,57.755 11.066,-2.7032 22.179,-5.1785 33.347,-7.1882 7.348,-1.2844 14.729,-2.4869 22.128,-2.8427 4.2916,-0.29714 8.5223,0.36957 12.586,1.4392 8.0093,2.1147 15.647,6.6975 28.444,10.286 v 5.1785 c -13.493,-4.0311 -21.546,-7.5965 -29.99,-9.972 -4.2844,-1.2015 -8.7446,-1.9507 -13.269,-1.6169 -7.8015,0.39967 -15.584,1.7504 -23.331,3.1931 -11.775,2.2575 -23.492,5.0385 -35.16,8.075 4.7356,-19.422 9.4713,-38.843 14.207,-58.265 0,0 1.0089,-2.8704 2.0159,-3.8773 1.007,-1.0069 4.0261,-2.1642 4.0261,-2.1642 z m 111.53,-32.942 c -1.0248,-0.008 -2.0534,0.0452 -3.0417,0.15399 -3.9092,0.4556 -7.6897,1.4864 -11.389,2.696 -5.3501,1.7874 -10.55,3.9446 -15.593,6.3862 v 3.0303 c 4.783,-2.1736 9.7151,-4.0942 14.789,-5.6854 3.5091,-1.0768 7.0948,-1.9943 10.802,-2.3998 0.93735,-0.0969 1.9127,-0.14414 2.8846,-0.13695 0.32398,0.003 0.64787,0.0111 0.96945,0.0259 3.7046,0.24102 7.3993,0.94209 11.037,1.7244 6.3585,1.3991 12.637,3.1184 18.874,5.0033 0,0 -0.27035,-2.7313 -1.2774,-3.7383 -1.0071,-1.007 -4.7651,-2.3037 -4.7651,-2.3037 -3.5244,-1.0125 -7.0656,-1.9541 -10.631,-2.79 -3.835,-0.87881 -7.7306,-1.6661 -11.636,-1.9368 -0.33909,-0.0165 -0.68006,-0.0264 -1.0216,-0.0289 z m 34.596,16.062 c 5.8886,20.76 11.777,41.52 17.666,62.279 -9.4357,-2.1108 -18.911,-4.0432 -28.433,-5.6126 -6.2653,-1.0029 -12.559,-1.9422 -18.868,-2.22 -3.6593,-0.23201 -7.2663,0.28875 -10.731,1.124 -6.8292,1.6513 -13.342,5.2298 -24.253,8.0321 v 4.0437 c 11.505,-3.1478 18.372,-5.9322 25.572,-7.7871 3.6531,-0.9382 7.4558,-1.5231 11.314,-1.2624 6.652,0.31209 13.288,1.3669 19.894,2.4934 10.04,1.7628 20.03,3.9345 29.979,6.3056 -5.474,-20.56 -10.948,-41.12 -16.422,-61.679 0,0 -0.86627,-2.8021 -1.819,-3.7548 -0.95275,-0.95274 -3.8974,-1.9616 -3.8974,-1.9616 z m 16.882,16.881 c 5.001,19.252 10.002,38.503 15.003,57.755 -11.066,-2.7032 -22.179,-5.1785 -33.347,-7.1882 -7.348,-1.2844 -14.729,-2.4869 -22.128,-2.8427 -4.2916,-0.29714 -8.5223,0.36957 -12.586,1.4392 -8.0093,2.1147 -15.647,6.6975 -28.444,10.286 v 5.1785 c 13.493,-4.0311 21.546,-7.5965 29.99,-9.972 4.2844,-1.2015 8.7446,-1.9507 13.269,-1.6169 7.8015,0.39967 15.584,1.7504 23.331,3.1931 11.775,2.2575 23.492,5.0385 35.16,8.075 -4.7356,-19.422 -9.4713,-38.843 -14.207,-58.265 0,0 -1.0089,-2.8704 -2.0159,-3.8773 -1.007,-1.0069 -4.0261,-2.1642 -4.0261,-2.1642 z"
         display="none"
         fill="#4b4a59"
         stroke-width="0.1975"
         id="path24"
         style="fill:url(#linearGradient879);fill-opacity:1.0" />
      <path
         transform="matrix(0.26458,0,0,0.26458,30.363,57.771)"
         d="m 317.9,94.035 c -1.0091,0.0076 -2.0158,0.03523 -3.0176,0.08398 -11.539,0.79982 -23.048,3.1264 -34.377,5.7227 -10.534,2.4694 -20.996,5.2509 -31.408,8.2422 0,0 -11.103,3.8317 -14.078,6.8066 -2.9752,2.975 -3.7734,11.043 -3.7734,11.043 18.426,-5.5686 36.975,-10.648 55.76,-14.781 10.745,-2.3113 21.661,-4.3817 32.605,-5.0938 0.95002,-0.0423 1.9062,-0.0686 2.8633,-0.0762 2.8712,-0.0213 5.7523,0.11819 8.5215,0.40431 10.953,1.1982 21.547,3.9086 31.914,7.0898 14.99,4.7009 29.561,10.376 43.691,16.797 14.13,-6.4212 28.699,-12.096 43.689,-16.797 10.367,-3.1812 20.961,-5.8916 31.914,-7.0898 2.7692,-0.28611 5.6503,-0.42554 8.5215,-0.40431 0.95712,0.008 1.9133,0.0338 2.8633,0.0762 10.944,0.71207 21.86,2.7825 32.605,5.0938 18.785,4.1333 37.333,9.2127 55.76,14.781 0,0 -0.79823,-8.068 -3.7734,-11.043 -2.9752,-2.9749 -14.078,-6.8066 -14.078,-6.8066 -10.412,-2.9913 -20.874,-5.7728 -31.408,-8.2422 -11.329,-2.5962 -22.838,-4.9228 -34.377,-5.7227 -1.0018,-0.04876 -2.0084,-0.07643 -3.0176,-0.08398 -3.0274,-0.02268 -6.0666,0.13355 -8.9863,0.45508 -11.549,1.346 -22.716,4.3896 -33.646,7.9629 -15.805,5.2805 -31.168,11.654 -46.066,18.867 -14.898,-7.2129 -30.263,-13.587 -46.068,-18.867 -10.93,-3.5733 -22.098,-6.6169 -33.646,-7.9629 -2.9197,-0.32152 -5.959,-0.47776 -8.9863,-0.45508 z m -119.4,50.576 c 0,0 -8.699,2.9803 -11.514,5.7949 -2.8146,2.8146 -5.375,11.092 -5.375,11.092 -16.172,60.739 -32.344,121.48 -48.516,182.22 29.391,-7.0046 76.1,-16.546 105.76,-21.754 19.516,-3.3281 39.12,-6.4452 58.771,-7.3672 11.398,-0.76993 22.634,0.95875 33.426,3.7305 21.272,5.4799 41.559,13.705 75.547,23.004 33.988,-9.2992 54.273,-17.524 75.545,-23.004 10.792,-2.7717 22.028,-4.5004 33.426,-3.7305 19.652,0.92198 39.256,4.0391 58.771,7.3672 29.662,5.2078 76.371,14.749 105.76,21.754 -16.171,-60.739 -32.344,-121.48 -48.516,-182.22 0,0 -2.5604,-8.2772 -5.375,-11.092 -2.8146,-2.8146 -11.514,-5.7949 -11.514,-5.7949 17.396,61.33 34.793,122.66 52.189,183.99 -27.875,-6.2358 -73.063,-15.071 -101.2,-19.707 -18.509,-2.9629 -37.104,-5.7378 -55.742,-6.5586 -10.811,-0.68541 -21.467,0.85285 -31.703,3.3203 -20.175,4.8784 -39.412,15.45 -71.648,23.729 -32.236,-8.2786 -51.475,-18.85 -71.65,-23.729 -10.236,-2.4674 -20.893,-4.0057 -31.703,-3.3203 -18.639,0.8208 -37.233,3.5957 -55.742,6.5586 -28.133,4.6362 -73.32,13.471 -101.2,19.707 17.396,-61.33 34.793,-122.66 52.189,-183.99 z m -32.676,38.926 c 0,0 -8.9196,3.4198 -11.895,6.3945 -2.9749,2.9746 -5.9551,11.453 -5.9551,11.453 -13.99,57.377 -27.981,114.75 -41.971,172.13 34.469,-8.9704 69.082,-17.186 103.87,-23.855 22.888,-4.262 45.88,-8.2529 68.928,-9.4336 13.368,-0.986 26.544,1.2279 39.201,4.7774 24.948,7.0178 48.738,17.55 88.6,29.459 39.862,-11.909 63.65,-22.441 88.598,-29.459 12.657,-3.5495 25.833,-5.7634 39.201,-4.7774 23.048,1.1807 46.04,5.1716 68.928,9.4336 34.787,6.6693 69.4,14.885 103.87,23.855 l -42.436,-173.38 c -0.92751,-2.4198 -3.1912,-7.9082 -5.4902,-10.207 -2.9749,-2.9747 -11.895,-6.3945 -11.895,-6.3945 14.774,56.874 29.55,113.75 44.324,170.62 -32.692,-7.9858 -65.522,-15.297 -98.516,-21.234 -21.708,-3.7944 -43.512,-7.3474 -65.371,-8.3984 -12.679,-0.87783 -25.177,1.0921 -37.182,4.252 -23.662,6.2474 -46.225,19.785 -84.031,30.387 -37.806,-10.602 -60.372,-24.139 -84.033,-30.387 -12.005,-3.1599 -24.503,-5.1298 -37.182,-4.252 -21.859,1.051 -43.663,4.6041 -65.371,8.3984 -32.994,5.9372 -65.823,13.249 -98.516,21.234 14.774,-56.874 29.55,-113.75 44.324,-170.62 z m 554.22,57.172 4.9785,20.344 c 71.646,81.306 99.805,158.76 79.156,198.6 -11.177,21.562 -39.984,32.235 -80.994,32.52 -67.011,0.46424 -144.6,-16.5 -247.68,-63.49 -11.443,7.263 -22.913,14.32 -34.389,21.164 114.03,62.391 223.51,99.223 301.64,99.428 45.803,0.12019 78.435,-12.409 95.092,-36.512 27.28,-39.477 9.9739,-107.38 -48.115,-188.77 -19.441,-27.239 -42.953,-55.243 -69.693,-83.283 z m -612.03,24.34 c -17.606,19.859 -33.457,39.594 -47.268,58.943 -58.089,81.388 -75.398,149.29 -48.117,188.77 27.281,39.477 96.918,47.296 193.59,21.736 96.67,-25.559 212.46,-82.404 321.89,-158.03 11.943,-8.253 23.687,-16.664 35.234,-25.193 -5.7398,-0.58144 -11.484,-1.0435 -17.23,-1.3379 -5.9892,-0.44175 -11.942,-0.2875 -17.836,0.30664 -9.2754,5.2563 -18.762,10.416 -28.471,15.459 -272.47,141.54 -408.53,134.08 -444.3,65.082 -17.043,-32.877 -0.12068,-83.633 46.615,-141.54 1.9666,-8.0652 3.9319,-16.13 5.8984,-24.195 z"
         fill="#5d5c82"
         stroke-width="1.0651"
         id="path26"
         style="fill:url(#linearGradient879);fill-opacity:1.0" />
    </g>
    <g
       fill="#4b4a59"
       id="g36"
       style="fill:url(#linearGradient879);fill-opacity:1.0">
      <path
         d="m 93.383,462.74 c 1.0248,-0.008 2.0534,0.0452 3.0417,0.154 3.9092,0.4556 7.6897,1.4864 11.389,2.696 5.3501,1.7874 10.55,3.9446 15.593,6.3862 v 3.0303 c -4.783,-2.1736 -9.7151,-4.0942 -14.789,-5.6854 -3.5091,-1.0768 -7.0948,-1.9943 -10.802,-2.3998 -0.93735,-0.0969 -1.9127,-0.14415 -2.8846,-0.13694 -0.32398,0.003 -0.64786,0.0111 -0.96944,0.0258 -3.7046,0.24101 -7.3993,0.94208 -11.037,1.7244 -6.3585,1.3991 -12.637,3.1184 -18.874,5.0033 0,0 0.27035,-2.7313 1.2774,-3.7383 1.0071,-1.007 4.7651,-2.3037 4.7651,-2.3037 3.5244,-1.0125 7.0656,-1.9541 10.631,-2.79 3.835,-0.87881 7.7305,-1.6661 11.636,-1.9368 0.33909,-0.0165 0.68006,-0.0264 1.0216,-0.0289 z m -40.417,17.12 c -5.8886,20.76 -11.777,41.52 -17.666,62.279 9.4357,-2.1108 24.731,-5.1016 34.254,-6.6709 6.2654,-1.0029 12.559,-1.9422 18.868,-2.22 3.6593,-0.23201 7.2663,0.28874 10.731,1.124 6.8293,1.6513 13.342,5.2298 24.253,8.0321 v 4.0437 c -11.505,-3.1478 -18.372,-5.9322 -25.572,-7.7871 -3.6531,-0.93821 -7.4558,-1.5231 -11.314,-1.2625 -6.652,0.31209 -13.288,1.3669 -19.894,2.4934 -10.04,1.7628 -25.851,4.9929 -35.8,7.3639 5.474,-20.56 10.948,-41.12 16.422,-61.679 0,0 0.86627,-2.802 1.819,-3.7548 0.95274,-0.95273 3.8974,-1.9616 3.8974,-1.9616 z m -11.061,13.176 c -5.001,19.252 -10.002,38.503 -15.003,57.755 11.066,-2.7032 22.179,-5.1785 33.347,-7.1882 7.348,-1.2844 14.729,-2.4869 22.128,-2.8427 4.2916,-0.29714 8.5223,0.36957 12.586,1.4392 8.0093,2.1147 15.647,6.6975 28.444,10.286 v 5.1785 c -13.493,-4.0311 -21.546,-7.5965 -29.99,-9.972 -4.2844,-1.2015 -8.7446,-1.9507 -13.269,-1.617 -7.8015,0.39967 -15.584,1.7504 -23.331,3.1931 -11.775,2.2575 -23.492,5.0385 -35.16,8.075 4.7355,-19.422 9.4713,-38.843 14.207,-58.265 0,0 1.0089,-2.8704 2.0159,-3.8773 1.007,-1.0069 4.0261,-2.1642 4.0261,-2.1642 z m 111.53,-30.296 c -1.0248,-0.008 -2.0534,0.0452 -3.0417,0.15399 -3.9092,0.4556 -7.6897,1.4864 -11.389,2.696 -5.3501,1.7874 -10.55,3.9446 -15.593,6.3862 v 3.0303 c 4.783,-2.1736 9.7151,-4.0942 14.789,-5.6854 3.5091,-1.0768 7.0948,-1.9942 10.802,-2.3998 0.93735,-0.0969 1.9127,-0.14414 2.8846,-0.13694 0.32398,0.003 0.64787,0.0111 0.96945,0.0259 3.7046,0.24101 7.3993,0.94208 11.037,1.7244 6.3585,1.3991 12.637,3.1184 18.874,5.0033 0,0 -0.27035,-2.7313 -1.2774,-3.7383 -1.0071,-1.007 -4.7651,-2.3037 -4.7651,-2.3037 -3.5244,-1.0125 -7.0656,-1.9541 -10.631,-2.79 -3.835,-0.87881 -7.7306,-1.6661 -11.636,-1.9368 -0.33909,-0.0165 -0.68006,-0.0264 -1.0216,-0.0289 z m 40.417,17.12 c 5.8886,20.76 11.777,41.52 17.666,62.279 -9.4357,-2.1108 -24.732,-5.1016 -34.254,-6.6709 -6.2653,-1.0029 -12.559,-1.9422 -18.868,-2.22 -3.6593,-0.23201 -7.2663,0.28875 -10.731,1.124 -6.8292,1.6513 -13.342,5.2298 -24.253,8.0321 v 4.0437 c 11.505,-3.1478 18.372,-5.9322 25.572,-7.7871 3.6531,-0.9382 7.4558,-1.5231 11.314,-1.2624 6.652,0.31209 13.288,1.3669 19.894,2.4934 10.04,1.7628 25.851,4.9928 35.8,7.3639 -5.474,-20.56 -10.948,-41.12 -16.422,-61.679 0,0 -0.86627,-2.8021 -1.819,-3.7548 -0.95274,-0.95274 -3.8974,-1.9616 -3.8974,-1.9616 z m 11.061,13.176 c 5.001,19.252 10.002,38.503 15.003,57.755 -11.066,-2.7032 -22.179,-5.1785 -33.347,-7.1882 -7.348,-1.2844 -14.729,-2.4869 -22.128,-2.8427 -4.2916,-0.29714 -8.5223,0.36958 -12.586,1.4392 -8.0093,2.1147 -15.647,6.6975 -28.444,10.286 v 5.1785 c 13.493,-4.0311 21.546,-7.5965 29.99,-9.972 4.2844,-1.2015 8.7446,-1.9507 13.269,-1.617 7.8015,0.39967 15.584,1.7504 23.331,3.1931 11.775,2.2575 23.492,5.0385 35.16,8.075 -4.7356,-19.422 -9.4713,-38.843 -14.207,-58.265 0,0 -1.0089,-2.8704 -2.0159,-3.8773 -1.007,-1.0069 -4.0261,-2.1642 -4.0261,-2.1642 z"
         display="none"
         stroke-width="0.1975"
         id="path30"
         style="fill:url(#linearGradient879);fill-opacity:1.0" />
      <path
         d="m 237.2,399.08 c -35.586,0.0934 -90.389,22.621 -142.3,58.493 -0.45389,0.31366 -0.9024,0.63156 -1.3544,0.94671 0.13571,0.0129 0.27278,0.024 0.40721,0.0388 3.9542,0.46084 7.7863,1.4635 11.541,2.6582 0.55814,-0.31982 1.1138,-0.64027 1.6774,-0.95911 55.842,-31.593 92.861,-42.06 123.4,-41.849 13.882,0.0962 23.633,3.7091 27.416,11.008 7.8803,15.202 -5.2419,46.593 -36.784,77.787 0.31077,1.2745 0.62148,2.549 0.93224,3.8235 12.146,-11.979 22.648,-24.041 30.963,-35.691 19.663,-27.55 25.522,-50.534 16.287,-63.897 -5.6381,-8.1588 -16.684,-12.4 -32.188,-12.359 z M 22.34,520.63 c -5.9596,6.7223 -11.325,13.403 -16,19.952 -19.663,27.55 -25.522,50.534 -16.287,63.897 9.2345,13.363 32.806,16.009 65.528,7.3577 32.722,-8.6517 71.916,-27.893 108.96,-53.491 4.0425,-2.7936 8.0177,-5.641 11.926,-8.5282 -1.9429,-0.19682 -3.8869,-0.35303 -5.8322,-0.45269 -2.0273,-0.14953 -4.0427,-0.0973 -6.0379,0.10387 -3.1397,1.7792 -6.3509,3.5256 -9.6371,5.2328 -92.23,47.912 -138.29,45.385 -150.39,22.03 -5.7689,-11.129 -0.04102,-28.309 15.779,-47.911 0.66568,-2.73 1.3311,-5.4601 1.9968,-8.1902 z"
         display="none"
         stroke-width="0.36052"
         id="path32"
         style="fill:url(#linearGradient879);fill-opacity:1.0" />
      <path
         d="m 21.731,399.08 c -15.101,0.0526 -26.052,4.2164 -31.68,12.359 -9.2343,13.363 -3.3755,36.347 16.287,63.897 4.6191,6.4718 13.209,16.153 21.039,24.626 0.15477,-0.63474 0.30929,-1.2695 0.46406,-1.9043 0,0 0.14649,-0.41315 0.38034,-0.98392 l -5.4694,-7.0595 c 0,0 -24.243,-39.149 -18.19,-50.827 10.072,-19.429 43.652,-24.43 107.75,2.0174 4.4251,-2.698 8.8481,-5.2983 13.258,-7.7964 -24.49,-13.506 -48.622,-23.676 -69.993,-29.327 -12.782,-3.3796 -24.168,-5.0355 -33.849,-5.0018 z m 206.53,112.01 c -0.7877,0.79548 -1.5824,1.5904 -2.3838,2.3854 28.148,29.585 39.584,58.596 32.105,73.023 -3.7834,7.2985 -13.534,10.911 -27.416,11.008 -22.683,0.15715 -48.947,-5.5848 -83.837,-21.491 -3.8735,2.4585 -7.7561,4.8474 -11.641,7.1639 38.597,21.119 75.659,33.586 102.1,33.656 15.504,0.0407 26.55,-4.2007 32.188,-12.359 9.2343,-13.363 3.3755,-36.347 -16.287,-63.897 -6.8809,-9.6408 -15.265,-19.564 -24.833,-29.489 z"
         display="none"
         stroke-width="0.36052"
         id="path34"
         style="fill:url(#linearGradient879);fill-opacity:1.0" />
    </g>
    <path
       d="m 58.467,57.771 c -11.804,0.0411 -20.364,3.2958 -24.762,9.6607 -7.218,10.445 -2.6384,28.411 12.731,49.945 3.6105,5.0587 10.325,12.626 16.445,19.249 0.12098,-0.49614 0.24176,-0.99234 0.36273,-1.4885 0,0 0.11451,-0.32294 0.29729,-0.76907 l -4.2752,-5.518 c 0,0 -18.949,-30.601 -14.218,-39.729 7.8725,-15.187 34.12,-19.095 84.223,1.5769 3.4588,-2.1089 6.9161,-4.1414 10.363,-6.094 -19.142,-10.557 -38.005,-18.507 -54.71,-22.923 -9.9912,-2.6416 -18.891,-3.936 -26.458,-3.9096 z m 161.44,87.552 c -0.61569,0.62179 -1.2369,1.2431 -1.8633,1.8645 22.002,23.125 30.941,45.801 25.095,57.078 -2.9573,5.7048 -10.579,8.5288 -21.43,8.604 -17.73,0.12283 -38.259,-4.3653 -65.531,-16.798 -3.0277,1.9217 -6.0625,3.7889 -9.0988,5.5996 30.17,16.508 59.138,26.253 79.809,26.307 12.119,0.0318 20.753,-3.2834 25.16,-9.6607 7.218,-10.445 2.6385,-28.411 -12.731,-49.945 -5.3784,-7.5357 -11.931,-15.292 -19.41,-23.05 z m 6.9815,-87.552 c -27.815,0.073 -70.652,17.682 -111.23,45.721 -0.35478,0.24518 -0.70536,0.49366 -1.0587,0.73999 0.10607,0.0101 0.21321,0.0187 0.31829,0.0303 3.0908,0.36021 6.0861,1.1439 9.0209,2.0778 0.43626,-0.24998 0.87063,-0.50046 1.3111,-0.74968 43.649,-24.695 72.584,-32.876 96.455,-32.711 10.85,0.0752 18.472,2.8992 21.43,8.604 6.1596,11.882 -4.0973,36.419 -28.752,60.802 0.24291,0.99621 0.48578,1.9924 0.72869,2.9886 9.4937,-9.3631 17.703,-18.792 24.202,-27.898 15.369,-21.534 19.949,-39.5 12.731,-49.945 -4.407,-6.3773 -13.041,-9.6925 -25.16,-9.6607 z m -167.94,95.006 c -4.6583,5.2544 -8.8524,10.476 -12.506,15.596 -15.369,21.534 -19.949,39.5 -12.731,49.945 7.2181,10.445 25.642,12.514 51.22,5.7511 25.577,-6.7626 56.213,-21.802 85.166,-41.811 3.1598,-2.1836 6.267,-4.4092 9.3222,-6.666 -1.5187,-0.15384 -3.0382,-0.27594 -4.5587,-0.35384 -1.5846,-0.11688 -3.16,-0.076 -4.7195,0.0812 -2.4541,1.3907 -4.9642,2.7558 -7.5328,4.0902 -72.091,37.45 -108.09,35.475 -117.55,17.219 -4.5093,-8.6988 -0.0321,-22.128 12.333,-37.449 0.52032,-2.1339 1.0404,-4.2679 1.5608,-6.4018 z m 55.531,-45.247 c 0.80099,-0.006 1.605,0.0353 2.3775,0.12037 3.0556,0.35612 6.0106,1.1618 8.9026,2.1073 4.1818,1.3971 8.2467,3.0833 12.188,4.9917 v 2.3686 c -3.7386,-1.699 -7.5937,-3.2002 -11.56,-4.444 -2.7428,-0.84169 -5.5456,-1.5588 -8.4437,-1.8758 -0.73267,-0.0757 -1.495,-0.11267 -2.2547,-0.10704 -0.25324,0.002 -0.5064,0.009 -0.75776,0.0202 -2.8957,0.18839 -5.7836,0.73637 -8.6267,1.3479 -4.9701,1.0936 -9.8777,2.4375 -14.753,3.9108 0,0 0.21131,-2.1349 0.9985,-2.922 0.78719,-0.7871 3.7246,-1.8007 3.7246,-1.8007 2.7548,-0.79144 5.5228,-1.5274 8.31,-2.1808 2.9976,-0.68692 6.0425,-1.3023 9.0956,-1.5139 0.26505,-0.0129 0.53156,-0.0206 0.79856,-0.0226 z m -31.591,13.382 c -4.6028,16.227 -9.2054,32.454 -13.808,48.68 7.3754,-1.6499 19.331,-3.9876 26.775,-5.2143 4.8973,-0.78393 9.8167,-1.5181 14.748,-1.7353 2.8603,-0.18135 5.6797,0.2257 8.3879,0.87854 5.338,1.2908 10.428,4.0878 18.957,6.2782 v 3.1607 c -8.9928,-2.4604 -14.36,-4.6369 -19.988,-6.0868 -2.8554,-0.73335 -5.8278,-1.1905 -8.8436,-0.9868 -5.1995,0.24394 -10.386,1.0684 -15.55,1.949 -7.848,1.3779 -20.207,3.9026 -27.983,5.756 4.2787,-16.07 8.5576,-32.141 12.836,-48.211 0,0 0.67711,-2.1902 1.4218,-2.9349 0.7447,-0.7447 3.0464,-1.5333 3.0464,-1.5333 z m -8.6456,10.299 c -3.909,15.048 -7.8182,30.096 -11.727,45.144 8.6498,-2.1129 17.336,-4.0477 26.065,-5.6186 5.7435,-1.0039 11.513,-1.9439 17.297,-2.222 3.3545,-0.23226 6.6614,0.28887 9.8376,1.1249 6.2605,1.653 12.23,5.2351 22.233,8.0402 v 4.0477 c -10.547,-3.1509 -16.841,-5.9378 -23.442,-7.7946 -3.3488,-0.93913 -6.8351,-1.5248 -10.372,-1.2639 -6.098,0.3124 -12.181,1.3682 -18.237,2.4958 -9.2041,1.7646 -18.362,3.9383 -27.482,6.3118 3.7015,-15.181 7.4032,-30.362 11.105,-45.543 0,0 0.7886,-2.2436 1.5757,-3.0307 0.78713,-0.78706 3.147,-1.6916 3.147,-1.6916 z m 87.174,-23.681 c -0.80099,-0.006 -1.605,0.0353 -2.3775,0.12037 -3.0556,0.35612 -6.0106,1.1618 -8.9025,2.1073 -4.1819,1.3971 -8.2467,3.0833 -12.188,4.9917 v 2.3686 c 3.7386,-1.699 7.5937,-3.2002 11.56,-4.444 2.7429,-0.84169 5.5456,-1.5588 8.4437,-1.8758 0.73267,-0.0757 1.495,-0.11266 2.2547,-0.10704 0.25324,0.002 0.50641,0.009 0.75777,0.0202 2.8957,0.1884 5.7836,0.73638 8.6267,1.3479 4.9701,1.0936 9.8777,2.4375 14.753,3.9108 0,0 -0.21132,-2.1349 -0.99851,-2.922 -0.78718,-0.78711 -3.7246,-1.8007 -3.7246,-1.8007 -2.7548,-0.79144 -5.5228,-1.5274 -8.31,-2.1808 -2.9976,-0.68692 -6.0426,-1.3023 -9.0956,-1.5139 -0.26505,-0.0129 -0.53156,-0.0206 -0.79856,-0.0226 z m 31.591,13.382 c 4.6028,16.227 9.2054,32.454 13.808,48.68 -7.3754,-1.6499 -19.331,-3.9876 -26.775,-5.2143 -4.8973,-0.78393 -9.8167,-1.5181 -14.748,-1.7353 -2.8603,-0.18135 -5.6797,0.2257 -8.3879,0.87855 -5.338,1.2908 -10.428,4.0878 -18.957,6.2782 v 3.1607 c 8.9927,-2.4604 14.36,-4.6369 19.988,-6.0868 2.8554,-0.73334 5.8278,-1.1905 8.8436,-0.98679 5.1995,0.24394 10.386,1.0684 15.55,1.949 7.848,1.3779 20.207,3.9026 27.983,5.7559 -4.2787,-16.07 -8.5576,-32.141 -12.836,-48.211 0,0 -0.67711,-2.1902 -1.4218,-2.9349 -0.74471,-0.7447 -3.0464,-1.5333 -3.0464,-1.5333 z m 8.6456,10.299 c 3.909,15.048 7.8182,30.096 11.727,45.144 -8.6498,-2.1129 -17.336,-4.0477 -26.065,-5.6186 -5.7435,-1.0039 -11.513,-1.9439 -17.297,-2.222 -3.3545,-0.23226 -6.6614,0.28888 -9.8376,1.1249 -6.2605,1.653 -12.23,5.2351 -22.233,8.0402 v 4.0477 c 10.547,-3.1509 16.841,-5.9378 23.442,-7.7946 3.3488,-0.93913 6.8352,-1.5248 10.372,-1.2639 6.098,0.3124 12.181,1.3682 18.237,2.4959 9.2041,1.7646 18.362,3.9383 27.482,6.3118 -3.7015,-15.181 -7.4032,-30.362 -11.105,-45.543 0,0 -0.7886,-2.2436 -1.5757,-3.0307 -0.78712,-0.78705 -3.147,-1.6916 -3.147,-1.6916 z"
       display="none"
       fill="#5d5c82"
       stroke-width="0.2818"
       id="path38"
       style="fill:url(#linearGradient879);fill-opacity:1.0" />
    <path
       d="m 58.467,57.771 c -11.804,0.0411 -20.364,3.2958 -24.762,9.6607 -7.218,10.445 -2.6384,28.411 12.731,49.945 3.6105,5.0587 10.325,12.626 16.445,19.249 0.12098,-0.49614 0.24176,-0.99234 0.36273,-1.4885 0,0 0.11452,-0.32294 0.2973,-0.76907 l -4.2752,-5.518 c 0,0 -18.949,-30.601 -14.218,-39.729 7.8725,-15.187 34.12,-19.095 84.223,1.5769 3.4588,-2.1089 6.9161,-4.1414 10.363,-6.094 -19.142,-10.557 -38.005,-18.507 -54.71,-22.923 -9.9912,-2.6416 -18.891,-3.936 -26.458,-3.9096 z m 168.42,0 c -27.815,0.073 -70.652,17.682 -111.23,45.721 -0.35478,0.24518 -0.70536,0.49366 -1.0587,0.73999 0.10607,0.0101 0.21321,0.0187 0.31829,0.0303 3.0908,0.36021 6.0861,1.1439 9.0209,2.0778 0.43626,-0.24998 0.87063,-0.50046 1.3111,-0.74968 43.649,-24.695 72.584,-32.876 96.455,-32.711 10.85,0.0752 18.472,2.8992 21.43,8.604 6.1596,11.882 -4.0973,36.419 -28.752,60.802 0.24291,0.99621 0.48578,1.9924 0.72869,2.9886 9.4937,-9.3631 17.703,-18.792 24.202,-27.898 15.369,-21.534 19.949,-39.5 12.731,-49.945 -4.407,-6.3773 -13.041,-9.6925 -25.16,-9.6607 z m -167.94,95.006 c -4.6583,5.2544 -8.8524,10.476 -12.506,15.596 -15.369,21.534 -19.949,39.5 -12.731,49.945 7.2181,10.445 25.642,12.514 51.22,5.7511 25.577,-6.7626 56.213,-21.802 85.166,-41.811 3.1598,-2.1836 6.267,-4.4092 9.3222,-6.666 -1.5187,-0.15384 -3.0382,-0.27594 -4.5587,-0.35384 -1.5846,-0.11688 -3.16,-0.076 -4.7195,0.0812 -2.4541,1.3907 -4.9642,2.7558 -7.5328,4.0902 -72.091,37.45 -108.09,35.475 -117.55,17.219 -4.5093,-8.6988 -0.0321,-22.128 12.333,-37.449 0.52032,-2.1339 1.0405,-4.2679 1.5608,-6.4018 z m 55.531,-45.247 c 0.80099,-0.006 1.605,0.0353 2.3775,0.12037 3.0556,0.35612 6.0106,1.1618 8.9026,2.1073 4.1818,1.3971 8.2467,3.0833 12.188,4.9917 v 2.3686 c -3.7386,-1.699 -7.5937,-3.2002 -11.56,-4.444 -2.7428,-0.84169 -5.5456,-1.5588 -8.4437,-1.8758 -0.73267,-0.0757 -1.495,-0.11267 -2.2547,-0.10704 -0.25324,0.002 -0.5064,0.009 -0.75776,0.0202 -2.8957,0.18839 -5.7836,0.73637 -8.6267,1.3479 -4.9701,1.0936 -9.8777,2.4375 -14.753,3.9108 0,0 0.21131,-2.1349 0.9985,-2.922 0.78719,-0.7871 3.7246,-1.8007 3.7246,-1.8007 2.7548,-0.79144 5.5228,-1.5274 8.31,-2.1808 2.9976,-0.68692 6.0425,-1.3023 9.0956,-1.5139 0.26505,-0.0129 0.53156,-0.0206 0.79856,-0.0226 z m -31.591,13.382 c -4.6028,16.227 -9.2054,32.454 -13.808,48.68 7.3754,-1.6499 19.331,-3.9876 26.775,-5.2143 4.8973,-0.78393 9.8167,-1.5181 14.748,-1.7353 2.8603,-0.18135 5.6797,0.2257 8.3879,0.87854 5.338,1.2908 10.428,4.0878 18.957,6.2782 v 3.1607 c -8.9928,-2.4604 -14.36,-4.6369 -19.988,-6.0868 -2.8554,-0.73335 -5.8278,-1.1905 -8.8436,-0.9868 -5.1995,0.24394 -10.386,1.0684 -15.55,1.949 -7.848,1.3779 -20.207,3.9026 -27.983,5.756 4.2787,-16.07 8.5576,-32.141 12.836,-48.211 0,0 0.6771,-2.1902 1.4218,-2.9349 0.7447,-0.7447 3.0464,-1.5333 3.0464,-1.5333 z m -8.6456,10.299 c -3.909,15.048 -7.8182,30.096 -11.727,45.144 8.6498,-2.1129 17.336,-4.0477 26.065,-5.6186 5.7435,-1.0039 11.513,-1.9439 17.297,-2.222 3.3545,-0.23226 6.6614,0.28887 9.8376,1.1249 6.2605,1.653 12.23,5.2351 22.233,8.0402 v 4.0477 c -10.547,-3.1509 -16.841,-5.9378 -23.442,-7.7946 -3.3488,-0.93913 -6.8351,-1.5248 -10.372,-1.2639 -6.098,0.3124 -12.181,1.3682 -18.237,2.4958 -9.2041,1.7646 -18.362,3.9383 -27.482,6.3118 3.7015,-15.181 7.4032,-30.362 11.105,-45.543 0,0 0.78859,-2.2436 1.5757,-3.0307 0.78713,-0.78706 3.147,-1.6916 3.147,-1.6916 z m 87.174,-23.681 c -0.80099,-0.006 -1.605,0.0353 -2.3775,0.12037 -3.0556,0.35612 -6.0106,1.1618 -8.9025,2.1073 -4.1819,1.3971 -8.2467,3.0833 -12.188,4.9917 v 2.3686 c 3.7386,-1.699 7.5937,-3.2002 11.56,-4.444 2.7429,-0.84169 5.5456,-1.5588 8.4437,-1.8758 0.73267,-0.0757 1.495,-0.11266 2.2547,-0.10704 0.25324,0.002 0.50641,0.009 0.75777,0.0202 2.8957,0.1884 5.7836,0.73638 8.6267,1.3479 4.9701,1.0936 9.8777,2.4375 14.753,3.9108 0,0 -0.21132,-2.1349 -0.99851,-2.922 -0.78718,-0.78711 -3.7246,-1.8007 -3.7246,-1.8007 -2.7548,-0.79144 -5.5228,-1.5274 -8.31,-2.1808 -2.9976,-0.68692 -6.0426,-1.3023 -9.0956,-1.5139 -0.26505,-0.0129 -0.53156,-0.0206 -0.79856,-0.0226 z m 31.591,13.382 c 4.6028,16.227 9.2054,32.454 13.808,48.68 -7.3754,-1.6499 -19.331,-3.9876 -26.775,-5.2143 -4.8973,-0.78393 -9.8167,-1.5181 -14.748,-1.7353 -2.8603,-0.18135 -5.6797,0.2257 -8.3879,0.87855 -5.338,1.2908 -10.428,4.0878 -18.957,6.2782 v 3.1607 c 8.9927,-2.4604 14.36,-4.6369 19.988,-6.0868 2.8554,-0.73334 5.8278,-1.1905 8.8436,-0.98679 5.1995,0.24394 10.386,1.0684 15.55,1.949 7.848,1.3779 20.207,3.9026 27.983,5.7559 -4.2787,-16.07 -8.5576,-32.141 -12.836,-48.211 0,0 -0.67711,-2.1902 -1.4218,-2.9349 -0.74471,-0.7447 -3.0464,-1.5333 -3.0464,-1.5333 z m 8.6456,10.299 c 3.909,15.048 7.8182,30.096 11.727,45.144 -8.6498,-2.1129 -17.336,-4.0477 -26.065,-5.6186 -5.7435,-1.0039 -11.513,-1.9439 -17.297,-2.222 -3.3545,-0.23226 -6.6614,0.28888 -9.8376,1.1249 -6.2605,1.653 -12.23,5.2351 -22.233,8.0402 v 4.0477 c 10.547,-3.1509 16.841,-5.9378 23.442,-7.7946 3.3488,-0.93913 6.8352,-1.5248 10.372,-1.2639 6.098,0.3124 12.181,1.3682 18.237,2.4959 9.2041,1.7646 18.362,3.9383 27.482,6.3118 -3.7015,-15.181 -7.4032,-30.362 -11.105,-45.543 0,0 -0.7886,-2.2436 -1.5757,-3.0307 -0.78712,-0.78705 -3.147,-1.6916 -3.147,-1.6916 z"
       display="none"
       fill="#5d5c82"
       stroke-width="0.2818"
       id="path40"
       style="fill:url(#linearGradient879);fill-opacity:1.0" />
  </g>
</svg>
