<?xml version="1.0" standalone="no"?>
<!DOCTYPE svg PUBLIC "-//W3C//DTD SVG 20010904//EN"
 "http://www.w3.org/TR/2001/REC-SVG-20010904/DTD/svg10.dtd">
<svg version="1.0" xmlns="http://www.w3.org/2000/svg"
 width="1700.000000pt" height="1700.000000pt" viewBox="0 0 1700.000000 1700.000000"
 preserveAspectRatio="xMidYMid meet">
<metadata>
Created by potrace 1.11, written by Peter Selinger 2001-2013
</metadata>
<g transform="translate(0.000000,1700.000000) scale(0.100000,-0.100000)"
fill="#000000" stroke="none">
<path d="M6099 13035 c-135 -19 -435 -79 -624 -127 -580 -144 -764 -217 -813
-320 -22 -45 -49 -165 -39 -174 3 -3 36 3 74 14 766 224 1264 336 1641 372
352 34 931 -112 1627 -410 l164 -70 68 31 c130 59 429 177 578 228 454 157
774 227 1035 225 310 -3 951 -139 1676 -355 71 -21 136 -39 143 -39 27 0 -19
162 -60 214 -46 58 -203 127 -438 192 -396 110 -811 201 -1020 225 -131 15
-439 7 -541 -14 -400 -83 -839 -235 -1324 -460 l-118 -55 -107 50 c-503 236
-1053 422 -1396 473 -125 18 -390 18 -526 0z"/>
<path d="M3878 12011 c-177 -74 -205 -122 -313 -531 -25 -96 -64 -240 -85
-320 -58 -218 -116 -433 -159 -597 -22 -82 -58 -217 -80 -300 -23 -84 -59
-220 -81 -303 -22 -82 -58 -216 -79 -297 -22 -82 -79 -294 -126 -473 -128
-482 -173 -653 -205 -770 -97 -363 -100 -378 -82 -367 6 4 238 57 742 167 140
31 357 76 540 111 58 11 182 36 275 54 459 92 967 176 1265 209 477 54 652 56
915 11 206 -36 363 -80 900 -255 273 -88 430 -137 646 -199 l176 -51 89 26
c49 14 143 41 209 60 66 19 316 98 555 174 239 76 500 157 580 179 180 51 396
89 548 97 269 15 891 -58 1557 -182 621 -115 1622 -323 1872 -388 29 -8 55
-11 57 -7 3 4 -1 30 -9 57 -7 27 -36 135 -64 239 -128 483 -204 772 -240 905
-21 80 -58 217 -81 305 -24 88 -60 223 -80 300 -21 77 -54 201 -73 275 -20 74
-54 203 -76 285 -22 83 -58 219 -81 303 -22 83 -58 218 -79 300 -22 81 -61
226 -86 322 -90 337 -107 396 -145 475 -20 44 -50 92 -66 107 -29 27 -156 91
-206 103 l-26 7 17 -69 c10 -37 32 -115 49 -173 17 -58 65 -226 107 -375 128
-452 244 -863 285 -1005 21 -74 72 -254 114 -400 41 -146 113 -400 159 -565
47 -165 120 -421 162 -570 42 -148 92 -324 111 -389 18 -66 33 -120 31 -122
-1 -1 -85 15 -187 37 -183 39 -472 99 -665 138 -91 18 -291 56 -740 140 -88
17 -191 35 -230 41 -38 6 -149 24 -245 40 -645 109 -1171 148 -1438 106 -238
-36 -447 -98 -847 -249 -266 -101 -464 -168 -668 -227 l-169 -49 -156 44
c-214 60 -495 158 -837 290 -238 92 -516 167 -725 196 -117 16 -411 13 -610
-6 -334 -31 -865 -111 -1405 -210 -365 -68 -1380 -272 -1436 -290 -20 -7 -21
-5 -15 26 3 19 24 95 46 169 21 74 73 257 115 405 42 149 114 403 160 565 46
162 118 417 160 565 42 149 94 331 115 405 51 177 189 666 285 1005 42 149 91
323 110 387 19 64 35 122 35 127 0 16 -18 13 -92 -18z"/>
<path d="M12942 11237 c3 -17 53 -216 112 -442 152 -579 164 -625 201 -770 18
-71 47 -182 63 -245 17 -63 78 -299 137 -525 59 -225 120 -462 136 -525 17
-63 46 -173 64 -245 47 -184 110 -424 139 -532 13 -51 23 -93 21 -93 -4 0
-241 57 -445 106 -322 78 -1095 240 -1475 308 -239 43 -253 45 -520 86 -584
89 -995 110 -1280 65 -276 -43 -485 -110 -1020 -330 -317 -130 -493 -196 -735
-273 -204 -65 -207 -66 -276 -47 -217 61 -535 176 -954 348 -470 192 -665 255
-927 299 -269 45 -735 25 -1248 -53 -706 -108 -1612 -291 -2349 -475 -76 -19
-140 -33 -142 -31 -4 4 15 79 85 347 57 220 323 1246 346 1335 13 50 37 142
53 205 59 223 324 1247 353 1360 16 63 32 123 35 133 3 11 0 17 -10 17 -24 0
-181 -79 -219 -111 -71 -58 -131 -212 -202 -514 -13 -55 -101 -417 -195 -805
-95 -388 -188 -768 -206 -845 -19 -77 -110 -450 -202 -830 -93 -379 -168 -691
-166 -693 1 -2 202 46 446 107 659 164 1317 309 1773 391 66 12 156 28 200 36
193 35 636 96 810 110 574 49 802 9 1625 -281 396 -139 895 -308 1038 -350
l123 -36 240 75 c132 42 407 135 612 207 904 317 1099 372 1427 399 265 22
815 -34 1400 -140 706 -129 1325 -267 2178 -485 79 -20 146 -34 149 -32 2 3
-28 137 -68 298 -39 162 -124 510 -189 774 -65 264 -174 712 -243 995 -70 283
-176 716 -236 962 -153 628 -162 645 -406 753 l-57 25 4 -33z"/>
<path d="M14390 10115 c0 -5 21 -98 47 -205 l47 -195 106 -125 c379 -445 721
-918 966 -1335 159 -272 335 -634 426 -875 154 -411 228 -788 215 -1099 -15
-372 -138 -644 -372 -826 -98 -76 -171 -119 -295 -172 -321 -139 -685 -190
-1270 -180 -551 10 -1035 65 -1601 182 -622 129 -1093 268 -1919 567 -92 33
-630 248 -710 284 -299 132 -513 224 -525 224 -7 0 -99 -54 -203 -119 -104
-65 -241 -149 -302 -186 -62 -36 -131 -78 -153 -92 l-40 -25 44 -25 c24 -13
118 -64 209 -112 1796 -955 3504 -1580 4870 -1781 376 -55 457 -62 835 -67
417 -6 575 5 852 63 308 63 591 177 793 319 183 128 365 344 455 539 51 113
101 285 121 417 13 91 15 161 11 344 -5 245 -15 320 -77 581 -194 817 -764
1829 -1627 2892 -308 379 -901 1040 -903 1007z"/>
<path d="M2027 9489 c-69 -79 -194 -227 -277 -329 -1018 -1244 -1617 -2377
-1736 -3285 -23 -173 -14 -552 15 -680 69 -296 183 -509 375 -700 124 -124
232 -200 402 -286 218 -111 492 -190 815 -236 181 -26 886 -26 1104 0 1040
124 2129 429 3335 934 245 103 275 116 455 196 1142 506 2362 1181 3550 1965
487 321 1183 811 1192 838 5 16 -82 22 -408 30 l-277 7 -153 -85 c-605 -335
-1614 -834 -2259 -1118 -467 -205 -892 -383 -1160 -485 -1323 -503 -2282 -757
-3250 -862 -234 -25 -869 -25 -1050 0 -474 66 -796 175 -1080 368 -180 122
-318 262 -434 441 -100 154 -157 306 -187 498 -17 108 -6 378 20 520 97 520
432 1167 941 1815 69 88 92 125 100 162 6 26 31 130 56 231 25 101 44 188 42
194 -3 7 -61 -53 -131 -133z"/>
</g>
</svg>
